HIERARCHY
ROOT hip
{
	OFFSET 0.000000 0.000000 0.000000 
	CHANNELS 6 Xposition Yposition Zposition Xrotation Zrotation Yrotation
	JOINT abdomen
	{
		OFFSET 0.000000 3.402643 0.000000 
		CHANNELS 3 Xrotation Zrotation Yrotation
		JOINT chest
		{
			OFFSET 0.000000 8.438565 -0.680529 
			CHANNELS 3 Xrotation Zrotation Yrotation
			JOINT neck
			{
				OFFSET 0.000000 10.207942 -0.272212 
				CHANNELS 3 Xrotation Zrotation Yrotation
				JOINT head
				{
					OFFSET 0.000000 3.130431 0.000000 
					CHANNELS 3 Xrotation Zrotation Yrotation
					End Site
					{
						OFFSET 0.000000 3.130435 0.000000 
					}
				}
			}
			JOINT lCollar
			{
				OFFSET 3.470700 6.669187 -0.816635 
				CHANNELS 3 Yrotation Zrotation Xrotation
				JOINT lShldr
				{
					OFFSET 3.198488 0.000000 0.000000 
					CHANNELS 3 Zrotation Yrotation Xrotation
					JOINT lForeArm
					{
						OFFSET 10.139888 0.000000 0.000000 
						CHANNELS 3 Yrotation Zrotation Xrotation
						JOINT lHand
						{
							OFFSET 8.370511 0.000000 0.000000 
							CHANNELS 3 Zrotation Yrotation Xrotation
							End Site
							{
								OFFSET 4.083176 0.000000 0.000000 
							}
						}
					}
				}
			}
			JOINT rCollar
			{
				OFFSET -3.470700 6.669187 -0.816635 
				CHANNELS 3 Yrotation Zrotation Xrotation
				JOINT rShldr
				{
					OFFSET -3.198488 0.000000 0.000000 
					CHANNELS 3 Zrotation Yrotation Xrotation
					JOINT rForeArm
					{
						OFFSET -10.139888 0.000000 0.000000 
						CHANNELS 3 Yrotation Zrotation Xrotation
						JOINT rHand
						{
							OFFSET -8.370511 0.000000 0.000000 
							CHANNELS 3 Zrotation Yrotation Xrotation
							End Site
							{
								OFFSET -4.083176 0.000000 0.000000 
							}
						}
					}
				}
			}
		}
	}
	JOINT lThigh
	{
		OFFSET 5.308129 -1.633274 1.361059 
		CHANNELS 3 Xrotation Zrotation Yrotation
		JOINT lShin
		{
			OFFSET -2.041588 -20.007561 0.000000 
			CHANNELS 3 Xrotation Zrotation Yrotation
			JOINT lFoot
			{
				OFFSET 0.000000 -19.190928 -1.224953 
				CHANNELS 3 Xrotation Yrotation Zrotation
				End Site
				{
					OFFSET 0.000000 -2.449906 4.627600 
				}
			}
		}
	}
	JOINT rThigh
	{
		OFFSET -5.308129 -1.633274 1.361059 
		CHANNELS 3 Xrotation Zrotation Yrotation
		JOINT rShin
		{
			OFFSET 2.041588 -20.007561 0.000000 
			CHANNELS 3 Xrotation Zrotation Yrotation
			JOINT rFoot
			{
				OFFSET 0.000000 -19.190928 -1.224953 
				CHANNELS 3 Xrotation Yrotation Zrotation
				End Site
				{
					OFFSET 0.000000 -2.449906 4.627600 
				}
			}
		}
	}
}
MOTION
Frames: 6
Frame Time: 0.011111
-11.625206 49.125614 -112.056915 3.980752 -17.849499 86.098816 -1.458041 0.269117 -0.044601 -23.227407 0.701142 0.128125 -6.506925 -17.932560 -22.274338 23.536255 29.690655 -43.272945 -5.788594 -15.737329 -1.465587 -17.740307 -13.060176 -20.018066 -39.238560 4.462311 4.123541 8.524705 12.647240 -97.913467 7.611086 14.174596 -1.900835 7.183149 55.346020 3.966308 49.872265 -7.680177 8.109122 -8.534408 -12.637552 69.222511 -25.591249 3.095273 -2.292075 35.918785 -4.952447 -5.614471 -36.437145 11.688807 6.641233 -48.222099 -27.217180 34.880642 40.444817 4.611516 6.161552 -87.734055 14.910526 26.975044 
-11.553191 49.058083 -111.840553 4.291866 -17.678989 85.711945 -1.351071 0.548372 -1.182891 -22.459913 1.925318 -0.266471 -7.697715 -18.510263 -21.595598 23.513792 28.810814 -42.589252 -5.788594 -15.737329 -1.465587 -17.716890 -12.414395 -22.115816 -39.036572 4.382544 4.051268 8.524705 12.647240 -98.694717 7.611086 14.174596 -1.900835 3.415087 51.136959 12.931033 55.348103 -8.735737 10.380097 -8.534408 -12.637552 79.456886 -25.450222 3.152915 -1.978583 36.136829 -4.937256 -5.648222 -36.304482 12.279799 6.885364 -48.270649 -28.027327 32.882450 40.426136 4.611773 6.130818 -87.038757 14.933859 24.793299 
-11.470933 49.071201 -111.634438 4.690885 -17.470942 85.255356 -1.104945 0.525633 -1.193430 -22.547050 1.719639 -0.265331 -7.804337 -18.525043 -21.721054 23.461460 28.831003 -42.895477 -5.788594 -15.737329 -1.465587 -16.108803 -12.321183 -22.975157 -38.895790 4.334635 4.006582 8.524705 12.647240 -99.974014 7.611086 14.174596 -1.900835 1.028967 47.058044 15.727605 58.009808 -9.090712 11.535791 -8.534408 -12.637552 83.665878 -25.190035 3.104693 -1.730721 36.354195 -4.933343 -5.666006 -36.289932 12.461480 6.995964 -48.767891 -29.589626 27.647953 40.742302 4.583406 6.178120 -83.569443 14.767212 18.910564 
-11.388355 49.012630 -111.387665 4.894039 -17.190954 84.820198 -0.763341 0.684802 -1.266793 -22.790512 1.511138 -0.296907 -7.709281 -18.443882 -21.907026 23.038265 28.796846 -43.328693 -5.788594 -15.737329 -1.465587 -14.564214 -12.010220 -23.827490 -38.865597 4.321906 3.991278 8.524705 12.647240 -101.243546 7.611086 14.174596 -1.900835 -0.671457 44.397923 15.829674 58.370209 -9.126391 11.687760 -8.534408 -12.637552 84.036964 -24.902483 3.289582 -1.278897 36.603245 -4.907613 -5.690039 -35.199497 13.872632 7.230153 -49.281864 -32.166542 19.343891 40.931099 4.557072 6.194584 -77.707962 12.866376 8.663039 
-11.306737 49.010712 -111.159134 4.528654 -16.972239 84.566597 -0.424971 1.634435 -1.321053 -23.102205 1.260802 -0.354455 -7.665227 -18.522995 -21.713598 22.824142 28.845785 -42.991913 -5.788594 -15.737329 -1.465587 -13.257877 -11.602818 -23.964788 -38.915760 4.340580 4.014753 8.524705 12.647240 -101.663467 7.611086 14.174596 -1.900835 -2.024897 42.826633 14.024487 56.713596 -8.927195 10.959995 -8.534408 -12.637552 81.517441 -24.816360 4.002414 -1.171307 36.929646 -4.888400 -5.741580 -35.947300 13.046434 7.138632 -48.449856 -31.785030 17.684116 41.226082 4.544174 6.244579 -77.481369 12.927761 9.021734 
-11.242404 49.028000 -110.910431 4.847384 -16.702389 84.055931 -0.066393 1.616142 -1.378707 -23.356731 1.414147 -0.382522 -7.603984 -18.436199 -21.760880 22.457685 28.680790 -43.162323 -5.788594 -15.737329 -1.465587 -11.955894 -11.325979 -23.057505 -38.925983 4.347350 4.022639 8.524705 12.647240 -101.038467 7.611086 14.174596 -1.900835 -3.183659 41.873238 10.988094 54.396332 -8.580891 9.978803 -8.534408 -12.637552 78.929550 -24.500530 3.964485 -1.225897 37.177471 -4.874905 -5.758908 -36.576111 13.392261 7.612894 -47.945850 -30.799864 18.908489 41.394341 4.534239 6.245835 -79.450943 13.943638 13.496724 
